/* XPM */
static char * delete_xpm[] = {
"20 20 9 1",
" 	c None",
".	c #080808",
"+	c #EEEAEE",
"@	c #BDBABD",
"#	c #9C9D9C",
"$	c #393C39",
"%	c #292C29",
"&	c #202420",
"*	c #626562",
"                    ",
"                    ",
"        ...         ",
"       .++@.        ",
"    ...........     ",
"   .+++++++@@##.    ",
"   .............    ",
"    .+$+%+&+.@.     ",
"    .+$+%+&+.@.     ",
"    .+$+%+&+.@.     ",
"    .+$+%+&+.@.     ",
"    .+$+%+&+.@.     ",
"    .+$+%+&+.@.     ",
"    .+$+%+&+.@.     ",
"    .+$+%+&+.@.     ",
"    .+$+$+$+%#.     ",
"    .######**$.     ",
"     .........      ",
"                    ",
"                    "};
