/* XPM */
static char * draw_xpm[] = {
"20 20 5 1",
" 	c None",
".	c #000000",
"+	c #DEDADE",
"@	c #949194",
"#	c #FFFFFF",
"                    ",
"                    ",
"         ....       ",
"         .+++.      ",
"        .++++.@     ",
"        ..++.@@     ",
"       .##...@      ",
"       .#++.@@      ",
"      .##++.@       ",
"      .#++.@@       ",
"     .##++.@        ",
"     .#++.@@        ",
"     ..++.@         ",
"     ....@@         ",
"     ...@@          ",
"     ..@@           ",
"     .@@            ",
"      @             ",
"                    ",
"                    "};
