/* XPM */
static char * duplicate_xpm[] = {
"20 20 17 1",
" 	c None",
".	c #000000",
"+	c #F6F2F6",
"@	c #FFFFFF",
"#	c #CDCECD",
"$	c #F6F6F6",
"%	c #626562",
"&	c #EEEEEE",
"*	c #FFFAFF",
"=	c #E6E6E6",
"-	c #DEDEDE",
";	c #DEDADE",
">	c #E6E2E6",
",	c #EEEAEE",
"'	c #D5D2D5",
")	c #C5C6C5",
"!	c #BDBEBD",
"                    ",
"                    ",
"      .......       ",
"     ..+@@@#.       ",
"    .@.$@@@%.       ",
"   .@#.$$@@%......  ",
"  .....&@*$%.@@@#.  ",
"  .&=-;+*@$%.@@@%.  ",
"  .@@+@@@$=%.$@@%.  ",
"  .@@*@@*==%.@*$%.  ",
"  .@$$$+&>;%.*@$%.  ",
"  .@$$$,=;;%.@$=%.  ",
"  .@>-;'')!%.*==%.  ",
"  .#%%%%%%%%.&>;%.  ",
"  ...........=;;%.  ",
"       .@>-;'')!%.  ",
"       .#%%%%%%%%.  ",
"       ...........  ",
"                    ",
"                    "};
