/* XPM */
static const char * entity_xpm[] = {
"20 20 5 1",
" 	c None",
".	c #000000",
"+	c #9DA095",
"@	c #83857B",
"#	c #D5CEC5",
"                    ",
"                    ",
"         .          ",
"       ..+..        ",
"     ..+++++..      ",
"   ..+++++++++..    ",
"  .+++++++++++++.   ",
"  ...+++++++++...   ",
"  .@@..+++++..##.   ",
"  .@@@@..+..####.   ",
"  .@@@@@@.######.   ",
"  .@@@@@@.######.   ",
"  .@@@@@@.######.   ",
"  .@@@@@@.######.   ",
"  .@@@@@@.######.   ",
"   ..@@@@.####..    ",
"     ..@@.##..      ",
"       .....        ",
"         .          ",
"                    "};
