/* XPM */
static const char * eye_xpm[] = {
"21 21 2 1",
" 	c None",
".	c #000000",
"                     ",
"                     ",
"                     ",
"                     ",
"       .......       ",
"     ...........     ",
"   ...............   ",
"  .................  ",
" ....  .... ..  .... ",
"....  .........   ...",
"..    .........     .",
"..    .........    ..",
" ...   .......    .. ",
"  ...  .......  ...  ",
"   .... ..... ....   ",
"     ...........     ",
"       .......       ",
"                     ",
"                     ",
"                     ",
"                     "};
