/* XPM */
static const char * lower_xpm[] = {
"20 20 20 1",
" 	c None",
".	c #000000",
"+	c #9C999C",
"@	c #FFFFFF",
"#	c #313031",
"$	c #CDCECD",
"%	c #8B898B",
"&	c #BDBEBD",
"*	c #A4A5A4",
"=	c #A4A1A4",
"-	c #B4B2B4",
";	c #B4B6B4",
">	c #626562",
",	c #737573",
"'	c #9C9D9C",
")	c #E6E6E6",
"!	c #949594",
"~	c #5A5D5A",
"{	c #626162",
"]	c #6A696A",
"                    ",
"                    ",
"                    ",
"                    ",
"    ...........     ",
"   .+@@@@@@@@+#.    ",
"    .@$$$$$$$%.     ",
"    .+@&$&$&*#.     ",
"     .@$=$-;>.      ",
"     .+@;+;%#.      ",
"      .@%*%,.       ",
"      .+$%'#.       ",
"       .)!~.        ",
"       .+{#.        ",
"        .].         ",
"        .#.         ",
"         .          ",
"                    ",
"                    ",
"                    "};
