/* XPM */
static const char * raise_xpm[] = {
"20 20 11 1",
" 	c None",
".	c #000000",
"+	c #CDCECD",
"@	c #FFFFFF",
"#	c #626562",
"$	c #DEDADE",
"%	c #9C999C",
"&	c #BDBEBD",
"*	c #ACAEAC",
"=	c #B4B2B4",
"-	c #313031",
"                    ",
"                    ",
"                    ",
"                    ",
"         .          ",
"        .+.         ",
"        .@.         ",
"       .+@#.        ",
"       .@$%.        ",
"      .+@+$#.       ",
"      .@&$&%.       ",
"     .+@$&$&#.      ",
"     .@+*+=+%.      ",
"    .+@%+%+%&#.     ",
"    .@%=%=%=%%.     ",
"   .+%########-.    ",
"    ...........     ",
"                    ",
"                    ",
"                    "};
