/* XPM */
static char * rotate_xpm[] = {
"20 20 5 1",
" 	c None",
".	c #FFFFFF",
"+	c #000000",
"@	c #949194",
"#	c #060606",
"                    ",
"                    ",
"                    ",
"        ....        ",
"      ..++++..      ",
"     .++++++++.     ",
"    .+++....+++.    ",
"    .++.@@@@.++.@   ",
"   .++.@@    .++.   ",
"   .++.@     .++.@  ",
"   .++..    ..++.@  ",
"   .++.+.  .+.++.@  ",
"    .+++.  .+++.@@  ",
"    .+++#..#+++.@   ",
"    .++++..++++.@   ",
"   .+++++..+++++.   ",
"   ..............@  ",
"    @@@@@@@@@@@@@@  ",
"                    ",
"                    "};
