/* XPM */
static const char * scale_xpm[] = {
"20 19 4 1",
" 	c None",
".	c #000000",
"+	c #949194",
"@	c #DEDADE",
"                    ",
"                    ",
" .......            ",
" .+++++.+.+.+.      ",
" .+++++.@@@@@+      ",
" .++@@@@..........  ",
" .++@@@+@@@@@+@@@.+ ",
" ...@+++@@@@@.@@@.+ ",
"  +@.@@@@@@@@+@@@.+ ",
"  .@.@@@@@@@@+@@@.+ ",
"  +@.@@@@@@@.@@@@.+ ",
"  .+.+.+.+.+@.@.@.+ ",
"    .@@@@@@@@@..@.+ ",
"    .@@@@@@@@...@.+ ",
"    .@@@@@@@@@@@@.+ ",
"    ..............+ ",
"     ++++++++++++++ ",
"                    ",
"                    "};
