/* XPM */
static char * stock_tool_move_16_xpm[] = {
"16 16 17 1",
" 	c None",
".	c #000000",
"+	c #1F1F1F",
"@	c #7F7F7F",
"#	c #757575",
"$	c #373737",
"%	c #767676",
"&	c #4A4A4A",
"*	c #8F8F8F",
"=	c #4D4D4D",
"-	c #595959",
";	c #282828",
">	c #444444",
",	c #626262",
"'	c #353535",
")	c #393939",
"!	c #575757",
"       .        ",
"      +@.       ",
"     .#$..      ",
"       .        ",
"       .        ",
"  .    .    .   ",
" .%    .    &.  ",
".*=.........-;. ",
" ..    .    >.  ",
"  .    .    .   ",
"       .        ",
"       .        ",
"     .,').      ",
"      +!.       ",
"       .        ",
"                "};
