/* XPM */
static const char * stock_tool_rotate_16_xpm[] = {
"16 16 77 1",
" 	c None",
".	c #000000",
"+	c #EEF7FB",
"@	c #A4B7C9",
"#	c #AABECF",
"$	c #B0C2D5",
"%	c #B6C8DB",
"&	c #BDCFE0",
"*	c #C3D4E6",
"=	c #C9D9EA",
"-	c #B4C5D7",
";	c #A0B4C5",
">	c #6C8AA3",
",	c #7693AB",
"'	c #7F9CB4",
")	c #8AA3BB",
"!	c #92ABC3",
"~	c #99B2CA",
"{	c #A2BAD1",
"]	c #8699AD",
"^	c #A6BACB",
"/	c #7492AB",
"(	c #7F9BB3",
"_	c #88A2BB",
":	c #90ABC1",
"<	c #8AA1B6",
"[	c #9EB4C8",
"}	c #A9BBCE",
"|	c #7996AE",
"1	c #829FB7",
"2	c #8CA6BF",
"3	c #859CB1",
"4	c #F3F3F5",
"5	c #889BAD",
"6	c #62798F",
"7	c #667C91",
"8	c #657A8C",
"9	c #ECECEE",
"0	c #939CA2",
"a	c #8D959C",
"b	c #E0E0E1",
"c	c #87929D",
"d	c #8A95A0",
"e	c #9299A1",
"f	c #D2D2D3",
"g	c #8F99A4",
"h	c #939DA8",
"i	c #A2AAB0",
"j	c #CED0D1",
"k	c #ECEEEE",
"l	c #97A2AC",
"m	c #9CA6B0",
"n	c #A9AFB6",
"o	c #CFD0D2",
"p	c #A0A5AB",
"q	c #A0AAB4",
"r	c #A3ADB7",
"s	c #AFB5BB",
"t	c #C3C4C5",
"u	c #3A3A3A",
"v	c #A8AEB2",
"w	c #A7B1BA",
"x	c #AAB4BD",
"y	c #B3BAC0",
"z	c #939393",
"A	c #666666",
"B	c #AFB3B6",
"C	c #AEB8C1",
"D	c #8D8D8D",
"E	c #B2B6BB",
"F	c #ABB4BD",
"G	c #909090",
"H	c #B5BAC0",
"I	c #B2BBC3",
"J	c #959595",
"K	c #B8B8B8",
"L	c #9C9C9C",
"...........     ",
".+@#$%&*=-.     ",
".;>,')!~{]. ..  ",
".^/(_:<..[.   . ",
".}|123.44..  ...",
".5678.90ab.   . ",
".....90cdef.    ",
"   .90cdghij.   ",
"  .k0cdghlmno.  ",
"   .pdghlmqrst. ",
"    uvhlmqrwxyz.",
" .   ABmqrwxCD. ",
"...   uEFwxCG.  ",
" .     .HICJ.   ",
"  ..    .KL.    ",
"         ..     "};
