/* XPM */
static char * tile_xpm[] = {
"20 20 3 1",
" 	c None",
".	c #000000",
"+	c #FFFFFF",
"                    ",
"                    ",
" .                . ",
"   .            .   ",
"     .        .     ",
"       .    .       ",
"         ..         ",
"       ..++..       ",
"     ..++++++..     ",
"   ..++++++++++..   ",
"  .++++++++++++++.  ",
"   ..++++++++++..   ",
"     ..++++++..     ",
"       ..++..       ",
"         ..         ",
"       .    .       ",
"     .        .     ",
"   .            .   ",
" .                . ",
"                    "};
