/* XPM */
static char * vertex_xpm[] = {
"20 20 4 1",
" 	c None",
".	c #000000",
"+	c #949194",
"@	c #FFFFFF",
"                ...+",
"               ..@.@",
"  .......    ..@...@",
"  .@@@@@.@ ..@@++@@@",
"  .@++++...@@+++ +++",
"  .@+ @ .@@+++      ",
"  .@+@.@.@++        ",
"  .@+ @.@@+         ",
"  ....@..@+         ",
"   .@@@@..@         ",
"   .@++@...@        ",
"  .@++  @...@       ",
"  .@+   @....@      ",
"...@+    @....@     ",
".@.@+    @.....@    ",
"...@+     @.....@   ",
" @@@+     @......@  ",
"  +++      @...@@++ ",
"            @.@+++  ",
"             @++    "};
